HIERARCHY
ROOT Hips
{
  OFFSET 265.287 66.7526 -254.649
  CHANNELS 6 Xposition Yposition Zposition Zrotation Xrotation Yrotation
  JOINT LeftUpLeg
  {
    OFFSET 8.64259 1.95398 -2.38835
    CHANNELS 3 Zrotation Xrotation Yrotation
    JOINT LeftLeg
    {
      OFFSET 43.7702 0 0
      CHANNELS 3 Zrotation Xrotation Yrotation
      JOINT LeftFoot
      {
        OFFSET 40.6238 0 0
        CHANNELS 3 Zrotation Xrotation Yrotation
        JOINT LeftToeBase
        {
          OFFSET 12.7242 0 0
          CHANNELS 3 Zrotation Xrotation Yrotation
          End Site
          {
            OFFSET 0 0 0
          }
        }
      }
    }
  }
  JOINT RightUpLeg
  {
    OFFSET -8.2249 1.95398 -2.59336
    CHANNELS 3 Zrotation Xrotation Yrotation
    JOINT RightLeg
    {
      OFFSET 43.5653 0 0
      CHANNELS 3 Zrotation Xrotation Yrotation
      JOINT RightFoot
      {
        OFFSET 40.6238 0 0
        CHANNELS 3 Zrotation Xrotation Yrotation
        JOINT RightToeBase
        {
          OFFSET 12.7242 0 0
          CHANNELS 3 Zrotation Xrotation Yrotation
          End Site
          {
            OFFSET 0 0 0
          }
        }
      }
    }
  }
  JOINT Spine
  {
    OFFSET 0.165834 0.87714 6.61349
    CHANNELS 3 Zrotation Xrotation Yrotation
    JOINT Spine1
    {
      OFFSET 7.38963 1.71661e-005 0
      CHANNELS 3 Zrotation Xrotation Yrotation
      JOINT Spine2
      {
        OFFSET 11.9445 1.14441e-005 0
        CHANNELS 3 Zrotation Xrotation Yrotation
        JOINT Spine3
        {
          OFFSET 14.7254 4.19617e-005 0
          CHANNELS 3 Zrotation Xrotation Yrotation
          JOINT Spine4
          {
            OFFSET 10.9679 0 0
            CHANNELS 3 Zrotation Xrotation Yrotation
            JOINT RightShoulder
            {
              OFFSET 2.46616 -1.6653 3.69651
              CHANNELS 3 Zrotation Xrotation Yrotation
              JOINT RightArm
              {
                OFFSET 13.0012 0 0
                CHANNELS 3 Zrotation Xrotation Yrotation
                JOINT RightForeArm
                {
                  OFFSET 28.7848 1.52588e-005 0
                  CHANNELS 3 Zrotation Xrotation Yrotation
                  JOINT RightHand
                  {
                    OFFSET 26.5688 1.52588e-005 0
                    CHANNELS 3 Zrotation Xrotation Yrotation
                    End Site
                    {
                      OFFSET 0 0 0
                    }
                  }
                }
              }
            }
            JOINT LeftShoulder
            {
              OFFSET 2.38034 -1.29275 -3.7523
              CHANNELS 3 Zrotation Xrotation Yrotation
              JOINT LeftArm
              {
                OFFSET 16.3182 6.10351e-005 0
                CHANNELS 3 Zrotation Xrotation Yrotation
                JOINT LeftForeArm
                {
                  OFFSET 27.0901 0 0
                  CHANNELS 3 Zrotation Xrotation Yrotation
                  JOINT LeftHand
                  {
                    OFFSET 24.5451 1.52588e-005 0
                    CHANNELS 3 Zrotation Xrotation Yrotation
                    End Site
                    {
                      OFFSET 0 0 0
                    }
                  }
                }
              }
            }
            JOINT Neck
            {
              OFFSET 5.0226 -0.0266342 0
              CHANNELS 3 Zrotation Xrotation Yrotation
              JOINT Head
              {
                OFFSET 6.69364 2.86102e-005 0
                CHANNELS 3 Zrotation Xrotation Yrotation
                End Site
                {
                  OFFSET 0 0 0
                }
              }
            }
          }
        }
      }
    }
  }
}
MOTION
Frames:	17
Frame Time:	0.0416667
33.0238 89.9233 -82.1569 0.54999 74.4671 -163.301 -179.593 -3.81019 91.0054 -28.9921 27.6864 7.31361 35.7475 -7.93582 3.53617 45.2691 -5.25359 -4.20991 178.869 55.5458 90.2055 -57.3691 -11.5888 -0.727737 56.3734 4.82585 18.7611 61.2167 -4.59743 0.73448 -1.14785 9.49714 -91.4591 7.84155 -2.92822 -2.72387 -3.82862 -3.04523 -2.59238 -26.3554 -1.97471 -3.47744 -6.34274 -1.97471 -3.47744 100.939 -49.4185 -84.0957 31.4841 -8.51247 33.0378 -2.97814 -14.1414 -29.3248 -5.89282 -0.137569 -2.98461 -85.3336 -42.3261 84.399 5.33777 -13.8344 -32.5584 3.83075 -5.6535 -76.7811 22.3261 -0.618376 -7.06626 14.9907 5.09274 -18.4298 -1.48872 10.5034 30.2427 
34.8403 90.2768 -102.266 5.51273 78.0963 -171.068 177.328 3.80987 85.661 -68.4241 9.65878 3.63974 42.8597 -4.45929 8.73721 27.9376 0.704092 -3.56012 172.407 47.5352 91.7481 -37.1867 -13.0525 5.10931 48.2224 8.45871 22.8525 76.0626 -6.21109 2.34096 -0.934996 9.79705 -91.4896 7.24004 -2.50924 -2.82192 -4.43129 -2.63095 -2.70882 -26.9507 -1.54571 -3.445 -6.93808 -1.54571 -3.44501 100.589 -52.3292 -84.5562 27.7591 -7.67284 23.5757 2.37163 -0.434884 -27.5109 -7.00314 -0.115049 -3.52046 -84.8717 -46.3167 85.7294 1.86546 -3.19821 -21.5528 6.14704 -5.70642 -71.273 21.5247 -0.430998 -5.97873 19.1133 4.90898 -15.894 -4.63908 9.35486 27.8072 
37.0076 87.6893 -121.594 19.9596 83.6851 177.863 177.929 24.146 90.7331 -112.271 11.612 0.671474 44.9683 -2.56903 15.0616 30.9966 -0.0916645 -6.23837 169.403 35.0745 97.1633 -49.9049 -12.2319 6.93131 61.6663 3.21155 16.474 47.8034 -2.47047 4.20839 -0.28571 10.2708 -92.0285 6.28863 -1.42888 -3.93939 -5.38733 -1.60074 -3.87284 -27.8748 -0.18006 -4.18628 -7.86216 -0.180058 -4.18629 101.919 -55.4553 -82.5285 18.3495 -7.5449 1.2915 5.68401 8.71578 -28.4141 -6.45119 -0.0243881 -5.13006 -86.4703 -52.0011 84.0966 -3.74964 17.0022 -12.9027 8.40615 4.42288 -37.9168 13.399 -0.65945 -8.38565 22.1515 4.55515 -16.1221 -6.42441 9.1004 29.6137 
38.4273 86.3787 -141.661 57.9746 80.7917 141.818 171.796 51.9039 100.534 -120.436 13.6253 0.432019 51.8789 -0.072002 16.8347 35.4285 -1.79503 -5.2789 176.366 22.2512 98.6686 -52.2372 -17.6748 2.57249 74.9398 -4.32586 7.68204 52.6462 -3.0557 4.14389 0.383006 9.83424 -91.8898 7.17865 -0.047312 -3.72343 -4.49783 -0.211008 -3.71776 -26.9911 1.07311 -3.56596 -6.97849 1.07311 -3.56596 101.074 -53.6415 -83.7898 15.7902 -5.17196 -18.1043 1.42353 3.06527 -42.1523 -5.63825 -0.0578259 -4.46625 -86.5266 -53.6624 84.2584 -18.7268 23.9739 6.3267 3.01537 22.8856 -18.9986 11.4664 -0.277609 -5.94068 22.643 4.43847 -20.8092 -7.29596 10.2475 34.6606 
38.3098 89.7507 -164.012 49.7684 77.5919 140.302 178.508 63.0876 92.1436 -87.0663 9.60224 1.00969 53.7973 0.0882424 13.5649 40.6862 -3.67202 -3.46759 175.869 -0.0497142 89.9387 -28.6171 -15.16 -2.46466 59.7135 4.31383 23.5785 61.4008 -3.57056 6.81144 0.82453 8.75885 -90.5061 9.39102 1.41637 -1.13172 -2.27939 1.36516 -1.19296 -24.8219 1.69112 -0.653643 -4.8093 1.69113 -0.653639 102.464 -49.6571 -81.6964 15.5791 -9.41306 -18.0326 0.443887 4.87127 -70.0197 -5.30452 0.0647344 -7.31453 -86.6961 -50.0643 83.4551 -29.883 23.1355 23.2282 0.914101 28.4867 -15.9051 9.67807 -0.29907 -6.34436 20.2573 1.7793 -12.1607 -7.99499 4.78323 20.61 
37.1029 93.3193 -187.751 31.2397 81.1405 156.355 179.582 51.0935 89.0098 -39.6412 9.91073 2.10327 49.8014 -2.59901 10.7586 39.9425 -3.4099 -5.11262 173.928 -12.678 84.6773 -28.5017 -17.748 -3.74288 39.3216 9.99232 19.8311 43.0815 -2.08277 -1.49459 1.0079 8.43364 -90.2278 10.0124 1.90508 -0.609364 -1.6573 1.87642 -0.692657 -24.2037 2.00012 -0.00841817 -4.191 2.00011 -0.00842323 104.155 -47.9837 -78.9828 15.8413 -15.1796 -11.3885 -5.09836 4.97531 -82.7121 -5.61717 0.215068 -10.6442 -87.4315 -47.4195 81.898 -30.7299 25.6262 22.669 -1.04316 26.3204 -15.2595 10.0242 -0.381544 -7.04901 15.267 -0.458409 -7.1941 -7.49674 1.04773 13.1097 
37.1927 92.2798 -209.448 50.3591 87.5085 136.339 -171.963 37.1642 86.1553 -26.31 13.48 -2.61048 45.1383 -5.33378 9.18663 48.3877 -5.93894 -1.5472 178.697 -5.66409 89.7391 -82.9515 -19.1244 -5.59762 32.7841 12.3542 18.0505 33.7774 -1.04789 5.06106 0.682702 8.89884 -90.036 9.07618 1.34549 -0.165331 -2.59423 1.33691 -0.224414 -25.1336 1.33295 0.246733 -5.12101 1.33295 0.24673 102.923 -50.0779 -80.9872 17.1424 -20.591 -4.59194 -8.88476 3.05946 -74.6002 -5.87963 0.0706323 -7.14658 -86.176 -50.3372 84.2898 -20.889 27.3739 7.63277 -4.45802 22.9035 -10.7304 12.7475 -0.225947 -5.37162 15.0384 0.492652 -6.3497 -9.05287 1.71362 9.92753 
36.555 87.691 -229.92 -111.692 82.7411 -67.676 -171.027 29.3773 77.6713 -50.5445 17.4283 -4.52647 68.7083 10.1401 28.6181 30.4105 0.163744 -7.39992 -177.924 14.7216 82.3712 -126.108 -22.1786 -3.10092 29.9162 14.3075 15.5709 28.9888 -0.0354897 0.649689 -0.346681 9.39153 -89.3752 8.09713 -0.418007 1.26054 -3.57413 -0.362122 1.2777 -26.1077 -0.77752 1.07666 -6.09505 -0.777516 1.07665 103.351 -53.7531 -80.4041 21.2349 -16.2154 2.67354 -7.11517 -3.93821 -54.3826 -10.1114 -0.0755073 -4.81423 -85.6127 -51.0136 85.229 -4.88267 24.4617 -17.489 -3.88043 16.2939 -11.6019 15.8438 -0.248807 -5.17664 23.2423 1.25639 -5.03286 -14.895 2.62861 3.29645 
35.3945 86.3504 -251.444 -106.363 75.2483 -74.8244 -175.789 13.8017 78.1466 -55.4356 24.069 -1.72218 76.1854 18.4817 36.9617 41.1043 -3.8242 -3.31234 -174.688 41.3114 81.1075 -124.36 -22.0544 -3.63195 38.7682 10.7072 8.22763 38.4506 -1.33217 -0.360266 -1.20384 9.29093 -89.3481 8.30268 -2.11542 1.41385 -3.36759 -2.05114 1.50559 -25.9135 -2.44251 0.712502 -5.90082 -2.4425 0.712493 103.463 -53.7556 -80.2378 23.6431 -6.38604 7.57387 -9.80528 -22.5149 -31.72 -7.26 -0.211941 -1.86675 -86.2886 -51.2949 84.2608 0.800247 12.9382 -34.2912 4.74015 9.70284 -23.4506 12.1866 -1.12404 -12.2082 22.039 0.505988 -2.16836 -15.1205 1.17045 0.339758 
32.4795 91.6623 -274.622 -104.559 69.4034 -71.3005 179.958 -3.94192 85.4978 -48.9559 21.4247 5.77855 60.854 2.82385 15.9823 56.0477 -8.21621 1.31696 176.73 42.9057 85.1528 -79.0089 -12.953 -2.70331 47.6337 6.77047 11.928 45.6936 -2.53026 -2.5157 -1.50656 8.79393 -90.1904 9.28599 -3.08987 -0.151751 -2.38128 -3.09354 -0.0154916 -24.9432 -2.90129 -1.07415 -4.93057 -2.90128 -1.07415 104.655 -52.2105 -78.3915 22.5434 -4.24836 17.9794 -9.16937 -38.0622 -23.1964 -4.26217 -0.157366 -1.00886 -85.1109 -48.8233 85.6941 4.0404 11.7095 -36.7312 6.72185 0.185313 -43.7914 0.854894 -0.819385 -29.8169 7.73279 -2.97312 -2.67218 -0.489443 -2.2717 3.43019 
30.51 89.7411 -296.266 -103.858 69.64 -72.2353 179.074 -15.3413 90.5625 -40.294 10.7981 3.74266 32.9484 -7.01682 -5.87029 108.437 -25.5328 2.37695 178.913 35.8042 82.8144 -26.2385 3.33039 -1.25084 38.4621 8.87678 27.6946 36.5316 -3.07874 15.7471 -1.43195 8.13021 -90.1718 10.6165 -2.93091 -0.0855293 -1.05109 -2.93184 0.0436577 -23.6107 -2.76959 -0.963104 -3.59805 -2.76958 -0.963108 104.777 -49.2855 -78.0524 22.5178 -0.651036 28.3135 -6.08505 -38.2376 -17.2293 -1.86896 -0.0743282 -1.28166 -80.9424 -43.6024 91.7672 9.59401 3.87098 -27.7312 36.2878 3.69883 -79.794 -16.9236 8.94969 -49.1115 14.841 -3.42631 3.56521 -10.054 -3.80286 -8.58262 
30.4306 75.7629 -316.654 -86.6122 64.5522 -94.1058 171.325 -19.1498 89.4031 -47.349 11.0497 1.8935 34.3177 -6.22067 -10.0944 128.081 -44.1991 -9.46558 -175.919 44.4123 71.0121 4.5559 53.5964 -7.6632 12.7967 3.27565 50.2558 2.54766 -11.8928 44.9143 -1.61248 6.79369 -89.9542 13.298 -3.17775 0.497159 1.63074 -3.15277 0.63666 -20.9351 -3.18009 -0.481862 -0.922498 -3.18009 -0.481858 104.028 -40.2428 -78.808 24.7356 3.90605 37.4707 -7.94723 -37.8231 -16.8987 1.8512 0.0529783 -1.84977 -81.2935 -45.7111 91.4167 23.8566 -33.9722 -11.0556 97.2664 -27.7998 -123.447 -4.63099 -0.530221 -89.8741 29.3395 8.21621 34.1818 -27.2686 7.3649 -58.8516 
29.5654 61.7781 -335.783 -75.404 59.5278 -107.964 162.289 -34.0771 87.8198 -29.7655 19.77 0.559515 23.1603 -9.73026 -14.2112 120.482 -50.5201 -22.0247 -157.656 56.7572 51.4284 14.4339 55.8493 -17.2294 5.31889 3.19458 43.5351 14.4441 -10.0234 51.0243 -1.60087 5.45828 -90.1472 15.9683 -3.23501 0.226975 4.30137 -3.22188 0.369271 -18.265 -3.1535 -0.756769 1.74763 -3.1535 -0.756777 95.245 -36.6011 -95.1065 23.9996 10.4762 43.4552 -10.7725 -37.9041 -16.0649 1.65064 0.0447544 -1.59591 -87.6247 -57.473 83.2697 83.4581 -64.2964 27.6531 57.3898 -24.174 -149.073 2.4908 -4.28063 -87.2418 26.0067 16.5251 46.1908 -16.7457 10.173 -92.0883 
27.5356 52.3046 -353.612 -69.9189 54.1007 -114.261 155.897 -52.8292 87.766 -0.168133 37.024 -0.0306941 7.88247 -17.3432 -20.9403 115.574 -54.7176 -31.4072 -135.926 56.8199 29.3294 9.83361 30.4797 -18.8188 3.79164 13.7078 41.1997 44.0552 -1.43592 35.8368 -1.88631 4.38126 -90.307 18.1264 -3.86596 0.114408 6.46117 -3.85716 0.284692 -16.1178 -3.72134 -1.05441 3.89482 -3.72137 -1.05442 83.5345 -38.0708 -115.513 19.9384 21.5275 51.673 -22.791 -27.7957 -31.406 0.986615 0.234835 13.4633 -89.5854 -55.3401 80.157 121.544 -60.8522 61.6338 42.371 -13.675 -153.952 5.56886 -7.18766 -87.9316 24.9793 19.9742 45.8442 -13.1773 10.8782 -103.322 
25.4525 45.5481 -369.607 -66.8155 49.3951 -117.478 151.677 -55.7874 88.1341 -0.0461489 65.9551 -0.0707041 10.7796 -27.5257 -17.8931 116.434 -56.4419 -32.6659 -127.93 49.0117 15.8499 8.57374 12.3545 -14.947 2.49405 20.7891 38.3817 62.8294 -1.80013 15.9521 -2.16071 3.53052 -90.4085 19.8348 -4.44418 0.11692 8.17143 -4.43472 0.312792 -14.4216 -4.27347 -1.22665 5.59104 -4.27348 -1.22665 76.907 -41.3073 -124.904 15.7013 23.515 56.0642 -59.2406 -27.2612 -74.3835 22.1532 14.0785 71.3008 -88.8812 -52.3468 80.6132 125.963 -54.8697 65.9789 36.1681 -9.91593 -151.934 7.48201 -8.97765 -88.4435 24.6937 21.7109 45.1902 -12.0127 12.3476 -110.801 
23.5067 40.6394 -383.461 -64.9784 45.5734 -119.095 148.897 -57.6065 89.051 0.976621 88.3376 -1.06464 13.6007 -33.7079 -13.73 116.964 -57.1339 -32.984 -120.831 40.11 1.76276 0.500064 6.8707 -7.20175 6.70792 26.2336 35.0269 70.3628 -4.76645 4.90969 -2.39757 2.87962 -90.4554 21.1458 -4.91896 0.207638 9.48409 -4.90503 0.424452 -13.1225 -4.7534 -1.28375 6.89012 -4.75341 -1.28375 72.5793 -44.5572 -129.808 12.7087 22.6995 58.3066 173.541 3.56675 -116.523 62.3714 43.1138 55.9666 -88.9244 -50.4644 80.1931 124.079 -49.9542 64.0299 32.8845 -9.03832 -148.842 8.73257 -10.2031 -88.9921 24.1653 22.486 44.4606 -10.4822 11.8507 -115.821 
21.7546 36.9994 -395.176 -63.881 42.5946 -119.831 148.1 -58.8031 91.032 179.826 78.7492 -179.834 15.2592 -36.7544 -10.8664 115.773 -57.3853 -34.4226 -121.135 32.3205 -2.2836 0.67215 5.89847 -6.4147 6.15961 29.241 34.8921 74.0019 -6.96385 -1.15018 -2.59706 2.39039 -90.4652 22.1344 -5.30043 0.34571 10.4742 -5.28004 0.579294 -12.1448 -5.15859 -1.26766 7.86788 -5.15859 -1.26765 69.3521 -47.4055 -132.928 11.885 20.9323 59.1327 147.167 -0.782895 -106.188 22.8562 10.7363 42.2854 -89.2693 -49.0797 79.3991 121.535 -45.9406 61.4752 30.7812 -9.20937 -146.172 9.60172 -11.0975 -89.5261 23.8294 22.3613 43.76 -9.03138 9.48351 -119.293 
